<svg xmlns="http://www.w3.org/2000/svg" width="613.244384765625" height="63.313690185546875" viewBox="-319.9399108886719 -77.11123657226562 613.244384765625 63.313690185546875"><title>Neo4j Graph Visualization</title><desc>Created using Neo4j (http://www.neo4j.com/)</desc><g class="layer relationships"><g class="relationship" transform="translate(143.5171140481974 -46.8408826276212) rotate(361.9172486444888)"><path class="outline" fill="#A5ABB6" stroke="none" d="M 25 0.5 L 39.70486058511678 0.5 L 39.70486058511678 -0.5 L 25 -0.5 Z M 74.15017308511679 0.5 L 88.85503367023357 0.5 L 88.85503367023357 3.5 L 95.85503367023357 0 L 88.85503367023357 -3.5 L 88.85503367023357 -0.5 L 74.15017308511679 -0.5 Z"/><text text-anchor="middle" pointer-events="none" font-size="8px" fill="#000000" x="56.92751683511678" y="3" font-family="sans-serif">ORIGIN</text></g><g class="relationship" transform="translate(143.5171140481974 -46.8408826276212) rotate(538.7798656220305)"><path class="outline" fill="#A5ABB6" stroke="none" d="M 25 0.5 L 40.56310874313188 0.5 L 40.56310874313188 -0.5 L 25 -0.5 Z M 99.75060874313188 0.5 L 115.31371748626376 0.5 L 115.31371748626376 3.5 L 122.31371748626376 0 L 115.31371748626376 -3.5 L 115.31371748626376 -0.5 L 99.75060874313188 -0.5 Z"/><text text-anchor="middle" pointer-events="none" font-size="8px" fill="#000000" x="70.15685874313188" y="3" transform="rotate(180 70.15685874313188 0)" font-family="sans-serif">DESTINATION</text></g><g class="relationship" transform="translate(-140.89738820403016 -43.08019304758451) rotate(359.73936150161876)"><path class="outline" fill="#A5ABB6" stroke="none" d="M 25 0.5 L 47.845146365837564 0.5 L 47.845146365837564 -0.5 L 25 -0.5 Z M 82.29045886583756 0.5 L 105.13560523167513 0.5 L 105.13560523167513 3.5 L 112.13560523167513 0 L 105.13560523167513 -3.5 L 105.13560523167513 -0.5 L 82.29045886583756 -0.5 Z"/><text text-anchor="middle" pointer-events="none" font-size="8px" fill="#000000" x="65.06780261583756" y="3" font-family="sans-serif">ORIGIN</text></g><g class="relationship" transform="translate(-140.89738820403016 -43.08019304758451) rotate(181.9204509096544)"><path class="outline" fill="#A5ABB6" stroke="none" d="M 25 0.5 L 41.96967012352464 0.5 L 41.96967012352464 -0.5 L 25 -0.5 Z M 101.15717012352464 0.5 L 118.12684024704927 0.5 L 118.12684024704927 3.5 L 125.12684024704927 0 L 118.12684024704927 -3.5 L 118.12684024704927 -0.5 L 101.15717012352464 -0.5 Z"/><text text-anchor="middle" pointer-events="none" font-size="8px" fill="#000000" x="71.56342012352464" y="3" transform="rotate(180 71.56342012352464 0)" font-family="sans-serif">DESTINATION</text></g></g><g class="layer nodes"><g class="node" aria-label="graph-node21" transform="translate(264.30449179323625,-42.79754973128624)"><circle class="outline" cx="0" cy="0" r="25" fill="#F16667" stroke="#eb2728" stroke-width="2px"/><text class="caption" text-anchor="middle" pointer-events="none" x="0" y="5" font-size="10px" fill="#FFFFFF" font-family="sans-serif"> MSN</text></g><g class="node" aria-label="graph-node68" transform="translate(-290.9399049084558,-48.111231068233565)"><circle class="outline" cx="0" cy="0" r="25" fill="#F16667" stroke="#eb2728" stroke-width="2px"/><text class="caption" text-anchor="middle" pointer-events="none" x="0" y="5" font-size="10px" fill="#FFFFFF" font-family="sans-serif"> GRR</text></g><g class="node" aria-label="graph-node271" transform="translate(143.5171140481974,-46.8408826276212)"><circle class="outline" cx="0" cy="0" r="25" fill="#8DCC93" stroke="#5db665" stroke-width="2px"/><text class="caption" text-anchor="middle" pointer-events="none" x="0" y="5" font-size="10px" fill="#2A2C34" font-family="sans-serif"> 11/30/20…</text></g><g class="node" aria-label="graph-node7" transform="translate(-3.7632018709148625,-43.70402075797904)"><circle class="outline" cx="0" cy="0" r="25" fill="#F16667" stroke="#eb2728" stroke-width="2px"/><text class="caption" text-anchor="middle" pointer-events="none" x="0" y="5" font-size="10px" fill="#FFFFFF" font-family="sans-serif"> ORD</text></g><g class="node" aria-label="graph-node851" transform="translate(-140.89738820403016,-43.08019304758451)"><circle class="outline" cx="0" cy="0" r="25" fill="#8DCC93" stroke="#5db665" stroke-width="2px"/><text class="caption" text-anchor="middle" pointer-events="none" x="0" y="5" font-size="10px" fill="#2A2C34" font-family="sans-serif"> 11/17/20…</text></g></g></svg>