<svg xmlns="http://www.w3.org/2000/svg" width="427.014892578125" height="65.45274353027344" viewBox="-313.0693054199219 -64.51866149902344 427.014892578125 65.45274353027344"><title>Neo4j Graph Visualization</title><desc>Created using Neo4j (http://www.neo4j.com/)</desc><g class="layer relationships"><g class="relationship" transform="translate(84.94558594671474 -31.88965187134749) rotate(539.9179884804116)"><path class="outline" fill="#A5ABB6" stroke="none" d="M 21.40063509461097,12.933012701892217 L 21.90063509461097,12.06698729810778 A 90.22105041568177 90.22105041568177 0 0 0 55.222487468551094,23.380820880150438 L 55.09182314154995,24.372247545945413 A 91.22105041568177 91.22105041568177 0 0 1 21.40063509461097,12.933012701892217 Z M 74.49173894053007,24.84707641602347 L 74.40973398000847,23.850444494775786 A 90.22105041568177 90.22105041568177 0 0 0 108.2451854437961,14.180341072656429 L 106.8740855191766,11.51199233294709 L 114.69984915722114,11.425832705162497 L 110.0733186766221,17.73813939226888 L 108.7022187520026,15.06979065255954 A 91.22105041568177 91.22105041568177 0 0 1 74.49173894053007,24.84707641602347"/><text text-anchor="middle" pointer-events="none" font-size="8px" fill="#000000" x="64.79135290068724" y="27.627154360486486" transform="rotate(180 64.79135290068724 24.627154360486486)" font-family="sans-serif">trek</text></g><g class="relationship" transform="translate(-51.9903624292003 -31.693645586457393) rotate(180.51421869815061)"><path class="outline" fill="#A5ABB6" stroke="none" d="M 25 0.5 L 42.73709710415623 0.5 L 42.73709710415623 -0.5 L 25 -0.5 Z M 62.07303460415623 0.5 L 79.81013170831245 0.5 L 79.81013170831245 3.5 L 86.81013170831245 0 L 79.81013170831245 -3.5 L 79.81013170831245 -0.5 L 62.07303460415623 -0.5 Z"/><text text-anchor="middle" pointer-events="none" font-size="8px" fill="#000000" x="52.40506585415623" y="3" transform="rotate(180 52.40506585415623 0)" font-family="sans-serif">trek</text></g><g class="relationship" transform="translate(-163.79599117104917 -32.697106731713) rotate(180.18043072563097)"><path class="outline" fill="#A5ABB6" stroke="none" d="M 25 0.5 L 46.96898375944596 0.5 L 46.96898375944596 -0.5 L 25 -0.5 Z M 66.30492125944596 0.5 L 88.27390501889192 0.5 L 88.27390501889192 3.5 L 95.27390501889192 0 L 88.27390501889192 -3.5 L 88.27390501889192 -0.5 L 66.30492125944596 -0.5 Z"/><text text-anchor="middle" pointer-events="none" font-size="8px" fill="#000000" x="56.63695250944596" y="3" transform="rotate(180 56.63695250944596 0)" font-family="sans-serif">trek</text></g><g class="relationship" transform="translate(84.94558594671474 -31.88965187134749) rotate(539.9179884804116)"><path class="outline" fill="#A5ABB6" stroke="none" d="M 25 0.5 L 53.962184952399525 0.5 L 53.962184952399525 -0.5 L 25 -0.5 Z M 75.97390370239953 0.5 L 104.93608865479905 0.5 L 104.93608865479905 3.5 L 111.93608865479905 0 L 104.93608865479905 -3.5 L 104.93608865479905 -0.5 L 75.97390370239953 -0.5 Z"/><text text-anchor="middle" pointer-events="none" font-size="8px" fill="#000000" x="64.96804432739953" y="3" transform="rotate(180 64.96804432739953 0)" font-family="sans-serif">road</text></g><g class="relationship" transform="translate(84.94558594671474 -31.88965187134749) rotate(539.9179884804116)"><path class="outline" fill="#A5ABB6" stroke="none" d="M 21.40063509461097,-12.933012701892217 L 21.90063509461097,-12.06698729810778 A 90.22105041568177 90.22105041568177 0 0 1 34.83457321260921,-18.22149250734364 L 34.47793153152045,-19.155733756331387 A 91.22105041568177 91.22105041568177 0 0 0 21.40063509461097,-12.933012701892217 Z M 95.33615121507395,-20.645288658875003 L 95.02564184488418,-19.69471834005354 A 90.22105041568177 90.22105041568177 0 0 1 108.2451854437961,-14.180341072656429 L 106.8740855191766,-11.51199233294709 L 114.69984915722114,-11.425832705162497 L 110.0733186766221,-17.73813939226888 L 108.7022187520026,-15.06979065255954 A 91.22105041568177 91.22105041568177 0 0 0 95.33615121507395,-20.645288658875003"/><text text-anchor="middle" pointer-events="none" font-size="8px" fill="#000000" x="64.79135290068724" y="-21.627154360486486" transform="rotate(180 64.79135290068724 -24.627154360486486)" font-family="sans-serif">PublicTransport</text></g></g><g class="layer nodes"><g class="node" aria-label="graph-node1" transform="translate(84.94558594671474,-31.88965187134749)"><circle class="outline" cx="0" cy="0" r="25" fill="#C990C0" stroke="#b261a5" stroke-width="2px"/><text class="caption" text-anchor="middle" pointer-events="none" x="0" y="5" font-size="10px" fill="#FFFFFF" font-family="sans-serif"> Darjeeling</text></g><g class="node" aria-label="graph-node3" transform="translate(-284.0692998185743,-33.07586189088064)"><circle class="outline" cx="0" cy="0" r="25" fill="#F79767" stroke="#f36924" stroke-width="2px"/><text class="caption" text-anchor="middle" pointer-events="none" x="0" y="5" font-size="10px" fill="#FFFFFF" font-family="sans-serif"> Sandakp…</text></g><g class="node" aria-label="graph-node0" transform="translate(-51.9903624292003,-31.693645586457393)"><circle class="outline" cx="0" cy="0" r="25" fill="#C990C0" stroke="#b261a5" stroke-width="2px"/><text class="caption" text-anchor="middle" pointer-events="none" x="0" y="5" font-size="10px" fill="#FFFFFF" font-family="sans-serif"> Rimbik</text></g><g class="node" aria-label="graph-node2" transform="translate(-163.79599117104917,-32.697106731713)"><circle class="outline" cx="0" cy="0" r="25" fill="#57C7E3" stroke="#23b3d7" stroke-width="2px"/><text class="caption" text-anchor="middle" pointer-events="none" x="0" y="5" font-size="10px" fill="#2A2C34" font-family="sans-serif"> BhikeBh…</text></g></g></svg>