<svg xmlns="http://www.w3.org/2000/svg" width="450.2107849121094" height="67.08137512207031" viewBox="-312.0693054199219 -40.64574432373047 450.2107849121094 67.08137512207031"><title>Neo4j Graph Visualization</title><desc>Created using Neo4j (http://www.neo4j.com/)</desc><g class="layer relationships"><g class="relationship" transform="translate(109.14146956886346 -6.637316798224363) rotate(539.7864941162961)"><path class="outline" fill="#A5ABB6" stroke="none" d="M 21.40063509461097,12.933012701892217 L 21.90063509461097,12.06698729810778 A 90.05998414110424 90.05998414110424 0 0 0 55.14366542016017,23.358072656851732 L 55.01278640816151,24.349471004751436 A 91.05998414110424 91.05998414110424 0 0 1 21.40063509461097,12.933012701892217 Z M 74.4127476650851,24.82482523530787 L 74.33058072237702,23.828206655546282 A 90.05998414110424 90.05998414110424 0 0 0 108.08671287588221,14.178791344818103 L 106.71575708114534,11.510368550567275 L 114.54152536159029,11.424631622807215 L 109.91465393553136,17.73668840381921 L 108.54369814079449,15.06826560956838 A 91.05998414110424 91.05998414110424 0 0 1 74.4127476650851,24.82482523530787"/><text text-anchor="middle" pointer-events="none" font-size="8px" fill="#000000" x="64.71231579720286" y="27.605563917579033" transform="rotate(180 64.71231579720286 24.605563917579033)" font-family="sans-serif">trek</text></g><g class="relationship" transform="translate(-27.63596276624709 -6.127629662810605) rotate(182.5899224844281)"><path class="outline" fill="#A5ABB6" stroke="none" d="M 25 0.5 L 47.8903141493238 0.5 L 47.8903141493238 -0.5 L 25 -0.5 Z M 67.2262516493238 0.5 L 90.1165657986476 0.5 L 90.1165657986476 3.5 L 97.1165657986476 0 L 90.1165657986476 -3.5 L 90.1165657986476 -0.5 L 67.2262516493238 -0.5 Z"/><text text-anchor="middle" pointer-events="none" font-size="8px" fill="#000000" x="57.5582828993238" y="3" transform="rotate(180 57.5582828993238 0)" font-family="sans-serif">trek</text></g><g class="relationship" transform="translate(-149.62779052831894 -11.645745439452682) rotate(538.8967055131501)"><path class="outline" fill="#A5ABB6" stroke="none" d="M 25 0.5 L 53.56515777482747 0.5 L 53.56515777482747 -0.5 L 25 -0.5 Z M 72.90109527482747 0.5 L 101.46625304965494 0.5 L 101.46625304965494 3.5 L 108.46625304965494 0 L 101.46625304965494 -3.5 L 101.46625304965494 -0.5 L 72.90109527482747 -0.5 Z"/><text text-anchor="middle" pointer-events="none" font-size="8px" fill="#000000" x="63.23312652482747" y="3" transform="rotate(180 63.23312652482747 0)" font-family="sans-serif">trek</text></g><g class="relationship" transform="translate(109.14146956886346 -6.637316798224363) rotate(539.7864941162961)"><path class="outline" fill="#A5ABB6" stroke="none" d="M 25 0.5 L 53.883331615173574 0.5 L 53.883331615173574 -0.5 L 25 -0.5 Z M 75.89505036517357 0.5 L 104.77838198034715 0.5 L 104.77838198034715 3.5 L 111.77838198034715 0 L 104.77838198034715 -3.5 L 104.77838198034715 -0.5 L 75.89505036517357 -0.5 Z"/><text text-anchor="middle" pointer-events="none" font-size="8px" fill="#000000" x="64.88919099017357" y="3" transform="rotate(180 64.88919099017357 0)" font-family="sans-serif">road</text></g><g class="relationship" transform="translate(109.14146956886346 -6.637316798224363) rotate(539.7864941162961)"><path class="outline" fill="#A5ABB6" stroke="none" d="M 21.40063509461097,-12.933012701892217 L 21.90063509461097,-12.06698729810778 A 90.05998414110424 90.05998414110424 0 0 1 34.758308297743625,-18.190186807542688 L 34.401076179903,-19.12420244658901 A 91.05998414110424 91.05998414110424 0 0 0 21.40063509461097,-12.933012701892217 Z M 95.25563687614702,-20.61531227369187 L 94.94457807267642,-19.664921606237982 A 90.05998414110424 90.05998414110424 0 0 1 108.08671287588221,-14.178791344818103 L 106.71575708114534,-11.510368550567275 L 114.54152536159029,-11.424631622807215 L 109.91465393553136,-17.73668840381921 L 108.54369814079449,-15.06826560956838 A 91.05998414110424 91.05998414110424 0 0 0 95.25563687614702,-20.61531227369187"/><text text-anchor="middle" pointer-events="none" font-size="8px" fill="#000000" x="64.71231579720283" y="-21.605563917579033" transform="rotate(180 64.71231579720283 -24.605563917579033)" font-family="sans-serif">PublicTransport</text></g></g><g class="layer nodes"><g class="node" aria-label="graph-node1" transform="translate(109.14146956886346,-6.637316798224363)"><circle class="outline" cx="0" cy="0" r="25" fill="#C990C0" stroke="#b261a5" stroke-width="2px"/><text class="caption" text-anchor="middle" pointer-events="none" x="0" y="5" font-size="10px" fill="#FFFFFF" font-family="sans-serif"> Darjeeling</text></g><g class="node" aria-label="graph-node3" transform="translate(-283.0692998185743,-9.075861890880638)"><circle class="outline" cx="0" cy="0" r="25" fill="#F79767" stroke="#f36924" stroke-width="2px"/><text class="caption" text-anchor="middle" pointer-events="none" x="0" y="5" font-size="10px" fill="#FFFFFF" font-family="sans-serif"> Sandakp…</text></g><g class="node" aria-label="graph-node0" transform="translate(-27.63596276624709,-6.127629662810605)"><circle class="outline" cx="0" cy="0" r="25" fill="#C990C0" stroke="#b261a5" stroke-width="2px"/><text class="caption" text-anchor="middle" pointer-events="none" x="0" y="5" font-size="10px" fill="#FFFFFF" font-family="sans-serif"> Rimbik</text></g><g class="node" aria-label="graph-node2" transform="translate(-149.62779052831894,-11.645745439452682)"><circle class="outline" cx="0" cy="0" r="25" fill="#57C7E3" stroke="#23b3d7" stroke-width="2px"/><text class="caption" text-anchor="middle" pointer-events="none" x="0" y="5" font-size="10px" fill="#2A2C34" font-family="sans-serif"> BhikeBh…</text></g></g></svg>